<?xml version="1.0" encoding="UTF-8" standalone="no"?>
<!-- Created with Inkscape (http://www.inkscape.org/) -->

<svg
   version="1.1"
   id="svg1"
   width="2580"
   height="2580"
   viewBox="0 0 2580 2580"
   xmlns="http://www.w3.org/2000/svg"
   xmlns:svg="http://www.w3.org/2000/svg">
  <defs
     id="defs1">
    <clipPath
       clipPathUnits="userSpaceOnUse"
       id="clipPath2">
      <path
         d="M 0,2965.584 H 3076.44 V 0 H 0 Z"
         transform="translate(-2034.5157,-2088.051)"
         id="path2" />
    </clipPath>
    <clipPath
       clipPathUnits="userSpaceOnUse"
       id="clipPath4">
      <path
         d="M 0,2965.584 H 3076.44 V 0 H 0 Z"
         transform="translate(-2290.9636,-2008.7021)"
         id="path4" />
    </clipPath>
    <clipPath
       clipPathUnits="userSpaceOnUse"
       id="clipPath6">
      <path
         d="M 0,2965.584 H 3076.44 V 0 H 0 Z"
         transform="translate(-3049.826,-2208.5379)"
         id="path6" />
    </clipPath>
    <clipPath
       clipPathUnits="userSpaceOnUse"
       id="clipPath8">
      <path
         d="M 0,2965.584 H 3076.44 V 0 H 0 Z"
         transform="translate(-1565.5731,-2542.4081)"
         id="path8" />
    </clipPath>
    <clipPath
       clipPathUnits="userSpaceOnUse"
       id="clipPath10">
      <path
         d="M 0,2965.584 H 3076.44 V 0 H 0 Z"
         transform="translate(-1886.8921,-1525.7603)"
         id="path10" />
    </clipPath>
    <clipPath
       clipPathUnits="userSpaceOnUse"
       id="clipPath12">
      <path
         d="M 0,2965.584 H 3076.44 V 0 H 0 Z"
         transform="translate(-189.5157,-126.96673)"
         id="path12" />
    </clipPath>
    <clipPath
       clipPathUnits="userSpaceOnUse"
       id="clipPath14">
      <path
         d="M 0,2965.584 H 3076.44 V 0 H 0 Z"
         transform="translate(-793.12404,-698.24084)"
         id="path14" />
    </clipPath>
    <clipPath
       clipPathUnits="userSpaceOnUse"
       id="clipPath16">
      <path
         d="M 0,2965.584 H 3076.44 V 0 H 0 Z"
         transform="translate(-1132.0195,-814.3668)"
         id="path16" />
    </clipPath>
    <clipPath
       clipPathUnits="userSpaceOnUse"
       id="clipPath18">
      <path
         d="M 0,2965.584 H 3076.44 V 0 H 0 Z"
         transform="translate(-1742.7714,-679.05532)"
         id="path18" />
    </clipPath>
    <clipPath
       clipPathUnits="userSpaceOnUse"
       id="clipPath20">
      <path
         d="M 0,2965.584 H 3076.44 V 0 H 0 Z"
         transform="translate(-2140.3306,-5.9738001)"
         id="path20" />
    </clipPath>
    <clipPath
       clipPathUnits="userSpaceOnUse"
       id="clipPath22">
      <path
         d="M 0,2965.584 H 3076.44 V 0 H 0 Z"
         transform="translate(-2513.5741,-695.83912)"
         id="path22" />
    </clipPath>
    <clipPath
       clipPathUnits="userSpaceOnUse"
       id="clipPath24">
      <path
         d="M 0,2965.584 H 3076.44 V 0 H 0 Z"
         transform="translate(-2775.8215,-126.9674)"
         id="path24" />
    </clipPath>
    <clipPath
       clipPathUnits="userSpaceOnUse"
       id="clipPath26">
      <path
         d="M 0,2965.584 H 3076.44 V 0 H 0 Z"
         transform="translate(-110.8789,-2356.5987)"
         id="path26" />
    </clipPath>
    <clipPath
       clipPathUnits="userSpaceOnUse"
       id="clipPath28">
      <path
         d="M 0,2965.584 H 3076.44 V 0 H 0 Z"
         transform="translate(-739.99182,-2595.8336)"
         id="path28" />
    </clipPath>
    <clipPath
       clipPathUnits="userSpaceOnUse"
       id="clipPath30">
      <path
         d="M 0,2965.584 H 3076.44 V 0 H 0 Z"
         transform="translate(-430.09211,-1254.5462)"
         id="path30" />
    </clipPath>
  </defs>
  <g
     id="layer-MC0">
    <g
       id="g30"
       transform="translate(640.09554,3.9724158)"
       style="fill:#007bff;fill-opacity:1">
      <path
         id="path25"
         d="m 0,0 c 0,64.17 52.227,116.382 116.427,116.382 64.184,0 116.412,-52.212 116.412,-116.382 0,-64.199 -52.228,-116.412 -116.427,-116.412 C 52.227,-116.412 0,-64.199 0,0 m 341.17,0 c 0,123.926 -100.817,224.743 -224.743,224.743 -123.926,0 -224.758,-100.817 -224.758,-224.743 0,-123.926 100.817,-224.773 224.743,-224.772 123.941,0 224.758,100.846 224.758,224.772"
         style="fill:#007bff;fill-opacity:1;fill-rule:nonzero;stroke:none"
         transform="matrix(1.3333333,0,0,-1.3333333,147.83853,811.9752)"
         clip-path="url(#clipPath26)" />
      <path
         id="path27"
         d="m 0,0 c -38.555,4.294 -125.432,17.354 -170.741,24.869 l -18.234,3.011 c -57.744,9.423 -125.164,45.742 -125.164,117.098 0,64.199 52.227,116.412 116.412,116.412 64.184,-0.03 116.412,-52.243 116.412,-116.412 0,-29.878 24.302,-54.18 54.165,-54.18 29.864,0 54.166,24.302 54.166,54.18 0,123.926 -100.817,224.772 -224.743,224.772 -123.926,0 -224.758,-100.846 -224.758,-224.772 0,-112.863 86.802,-202.916 215.991,-224.057 l 18.07,-2.952 c 54.196,-8.976 141.788,-21.857 180.805,-26.032 75.024,-8.021 131.59,-64.11 131.59,-130.456 0,-69.09 -56.193,-125.268 -125.268,-125.268 -58.474,0 -108.614,39.659 -121.943,96.493 -3.31,14.074 -11.913,26.032 -24.243,33.695 -12.3,7.604 -26.792,9.93 -40.866,6.709 -29.073,-6.828 -47.188,-36.05 -40.375,-65.124 24.869,-106.064 118.38,-180.134 227.427,-180.134 128.801,0 233.599,104.813 233.614,233.629 C 232.317,-117.157 132.439,-14.641 0,0"
         style="fill:#007bff;fill-opacity:1;fill-rule:nonzero;stroke:none"
         transform="matrix(1.3333333,0,0,-1.3333333,986.65573,492.99533)"
         clip-path="url(#clipPath28)" />
      <path
         id="path29"
         d="M 0,0 -135.287,0.002 V 101.745 L 0.002,101.743 c 0.846,0 1.634,0.209 2.469,0.25 V -0.25 C 1.634,-0.207 0.846,0 0,0 m 159.689,814.611 -58.065,0.002 v 59.914 c 0,27.387 -22.203,49.591 -49.59,49.591 -27.386,0 -49.59,-22.204 -49.59,-49.589 v -59.916 l -58.066,10e-4 c -27.385,0 -49.59,-22.203 -49.59,-49.588 0,-27.387 22.203,-49.59 49.59,-49.59 L 2.442,715.434 V 649.235 H -7.97 c -27.387,0 -49.59,-22.202 -49.59,-49.589 0,-27.384 22.203,-49.59 49.588,-49.59 H 2.44 L 2.473,200.672 c -0.837,0.043 -1.625,0.25 -2.471,0.25 l -135.289,0.001 v 27.825 c 0,29.013 -23.616,52.63 -52.645,52.659 -29.028,0 -52.645,-23.616 -52.645,-52.659 l 0.001,-352.635 c 0,-29.014 23.616,-52.63 52.644,-52.63 29.029,0 52.645,23.617 52.645,52.63 v 24.71 L 0,-99.178 c 0.846,0 1.634,0.208 2.469,0.249 v -69.492 c 0,-27.386 22.204,-49.59 49.591,-49.59 27.384,0 49.59,22.204 49.59,49.588 l -0.029,718.479 h 10.399 c 27.386,-0.002 49.59,22.202 49.592,49.589 0,27.384 -22.204,49.588 -49.59,49.588 h -10.4 v 66.201 l 58.065,-0.002 c 27.386,0 49.59,22.204 49.59,49.59 0,27.385 -22.204,49.589 -49.588,49.589"
         style="fill:#007bff;fill-opacity:1;fill-rule:nonzero;stroke:none"
         transform="matrix(1.3333333,0,0,-1.3333333,573.45613,2281.3785)"
         clip-path="url(#clipPath30)" />
    </g>
  </g>
</svg>
